
<svg version="1.0" xmlns="http://www.w3.org/2000/svg"
 width="512.000000pt" height="512.000000pt" viewBox="0 0 512.000000 512.000000"
 preserveAspectRatio="xMidYMid meet">
<g transform="translate(0.000000,512.000000) scale(0.100000,-0.100000)"
fill="#000000" stroke="none">
<path d="M2235 4199 c-176 -458 -324 -838 -330 -845 -7 -9 -235 -25 -907 -60
-494 -27 -898 -51 -898 -54 0 -3 315 -262 700 -574 506 -411 699 -573 696
-585 -3 -9 -106 -398 -231 -866 -124 -467 -228 -856 -230 -864 -4 -11 -1 -11
17 1 1079 699 1499 968 1508 968 9 0 362 -226 1507 -967 l22 -15 -19 69 c-10
37 -114 426 -230 863 -116 437 -213 802 -216 811 -3 12 189 173 696 585 385
312 700 571 700 574 0 3 -404 27 -897 54 -673 35 -901 51 -908 60 -5 7 -154
387 -330 845 -176 457 -322 831 -325 831 -3 0 -149 -374 -325 -831z m579 -387
c137 -356 254 -652 260 -658 7 -7 238 -23 636 -44 344 -18 659 -35 701 -39
l75 -6 -548 -445 c-301 -245 -548 -448 -548 -451 0 -4 81 -311 181 -684 99
-372 179 -678 177 -680 -2 -1 -270 171 -595 382 l-593 384 -592 -384 c-326
-211 -594 -383 -596 -381 -2 1 78 307 177 679 100 373 181 680 181 684 0 3
-247 206 -548 451 l-548 445 75 6 c42 4 357 21 701 39 398 21 629 37 636 44 6
6 123 302 260 658 137 356 251 648 254 648 3 0 117 -292 254 -648z"/>
</g>
</svg>
